<svg xmlns="http://www.w3.org/2000/svg" xmlns:xlink="http://www.w3.org/1999/xlink" width="1366" zoomAndPan="magnify" viewBox="0 0 1024.5 305.999988" height="768" preserveAspectRatio="xMidYMid meet" version="1.0"><defs><clipPath id="8ac7acc4ad"><path d="M 0 0.0742188 L 1024 0.0742188 L 1024 305.925781 L 0 305.925781 Z M 0 0.0742188 " clip-rule="nonzero"/></clipPath><clipPath id="da0c9ca2be"><path d="M 19 0.0742188 L 354 0.0742188 L 354 305.925781 L 19 305.925781 Z M 19 0.0742188 " clip-rule="nonzero"/></clipPath><clipPath id="e90a570872"><path d="M -21.8125 -66.171875 L 323.382812 -102.316406 L 368.816406 331.601562 L 23.621094 367.746094 Z M -21.8125 -66.171875 " clip-rule="nonzero"/></clipPath><clipPath id="9c9e23d3c2"><path d="M -21.8125 -66.171875 L 323.382812 -102.316406 L 368.816406 331.601562 L 23.621094 367.746094 Z M -21.8125 -66.171875 " clip-rule="nonzero"/></clipPath><clipPath id="5ceaf77096"><path d="M 728 0.0742188 L 1024 0.0742188 L 1024 305.925781 L 728 305.925781 Z M 728 0.0742188 " clip-rule="nonzero"/></clipPath><clipPath id="3a9ab00fa9"><path d="M 677.773438 93.695312 L 1011.523438 -50.507812 L 1149.183594 268.109375 L 815.433594 412.308594 Z M 677.773438 93.695312 " clip-rule="nonzero"/></clipPath><clipPath id="f662cc5b1c"><path d="M 677.773438 93.695312 L 1011.523438 -50.507812 L 1149.183594 268.109375 L 815.433594 412.308594 Z M 677.773438 93.695312 " clip-rule="nonzero"/></clipPath></defs><g clip-path="url(#8ac7acc4ad)"><path fill="#ffffff" d="M 0 0.0742188 L 1024 0.0742188 L 1024 305.925781 L 0 305.925781 Z M 0 0.0742188 " fill-opacity="1" fill-rule="nonzero"/><path fill="#b0becc" d="M 0 0.0742188 L 1024 0.0742188 L 1024 305.925781 L 0 305.925781 Z M 0 0.0742188 " fill-opacity="1" fill-rule="nonzero"/></g><g clip-path="url(#da0c9ca2be)"><g clip-path="url(#e90a570872)"><g clip-path="url(#9c9e23d3c2)"><path fill="#2b44ff" d="M 43.683594 365.746094 C 40.828125 366.046875 37.859375 365.652344 35.023438 364.464844 C 26.019531 360.691406 21.777344 350.332031 25.550781 341.328125 C 40.609375 305.378906 59.769531 285.070312 85.84375 277.414062 C 108.546875 270.746094 131.824219 275.203125 156.46875 279.921875 C 187.535156 285.871094 219.65625 292.023438 254.671875 276.714844 C 291.667969 260.542969 313.296875 238.433594 317.222656 212.78125 C 321.101562 187.457031 307.503906 165.273438 294.523438 153.792969 C 277.144531 140.488281 257.4375 137.464844 232.566406 144.261719 C 208.058594 150.957031 182.414062 165.976562 157.609375 180.503906 C 138.484375 191.703125 120.421875 202.285156 102.96875 209.109375 C 102.433594 209.316406 101.890625 209.5 101.339844 209.65625 C 87.832031 213.476562 73.945312 213.480469 61.175781 209.675781 C 48.425781 205.871094 37.6875 198.613281 30.109375 188.683594 C 16.09375 170.308594 15.511719 146.300781 28.519531 124.363281 C 47.273438 88.570312 90.253906 72.613281 131.832031 57.171875 C 158.367188 47.320312 183.433594 38.011719 199.011719 24.816406 C 209.402344 16.015625 218.976562 3.449219 211.1875 -23.03125 C 206.175781 -40.0625 198.714844 -42.945312 196.261719 -43.894531 C 185.863281 -47.910156 167.59375 -42.960938 147.386719 -30.648438 C 139.046875 -25.566406 128.167969 -28.207031 123.085938 -36.546875 C 118.003906 -44.882812 120.644531 -55.761719 128.984375 -60.84375 C 150.496094 -73.953125 181.84375 -87.375 209.007812 -76.878906 C 226.375 -70.167969 238.519531 -55.410156 245.109375 -33.007812 C 255.285156 1.582031 247.464844 30.117188 221.867188 51.800781 C 201.558594 69 172.371094 79.839844 144.140625 90.324219 C 108.683594 103.488281 72.015625 117.105469 59.6875 141.070312 C 59.503906 141.429688 59.308594 141.777344 59.101562 142.121094 C 55.066406 148.808594 51.636719 158.597656 58.226562 167.234375 C 63.710938 174.425781 75.902344 179.796875 90.929688 175.84375 C 105.585938 169.992188 122.183594 160.269531 139.738281 149.992188 C 166.527344 134.300781 194.226562 118.082031 223.242188 110.148438 C 240.074219 105.550781 255.375 104.277344 270.027344 106.257812 C 286.835938 108.527344 302.503906 115.222656 316.597656 126.160156 C 316.859375 126.363281 317.117188 126.570312 317.367188 126.789062 C 329.382812 137.242188 339.078125 150.78125 345.40625 165.941406 C 352.472656 182.875 354.8125 200.921875 352.179688 218.132812 C 348.097656 244.800781 330.324219 282.238281 268.835938 309.117188 C 223.777344 328.8125 182.769531 320.960938 149.816406 314.652344 C 128.613281 310.589844 110.300781 307.082031 95.804688 311.339844 C 86.332031 314.125 72.121094 321.675781 58.164062 354.988281 C 55.578125 361.160156 49.898438 365.097656 43.683594 365.746094 Z M 43.683594 365.746094 " fill-opacity="1" fill-rule="nonzero"/></g></g></g><g clip-path="url(#5ceaf77096)"><g clip-path="url(#3a9ab00fa9)"><g clip-path="url(#f662cc5b1c)"><path fill="#c1dee2" d="M 979.664062 341.054688 C 950.636719 353.601562 926.417969 354.003906 907.648438 342.25 C 896.300781 335.144531 887.886719 323.726562 883.5 310.066406 C 878.800781 311.597656 873.910156 312.828125 868.839844 313.613281 C 848.222656 316.796875 828.605469 311.660156 815.015625 299.511719 C 802.851562 288.636719 795.421875 271.648438 794.640625 252.902344 C 794.214844 242.800781 795.578125 233.117188 797.667969 223.898438 C 774.527344 232.324219 756.09375 230.769531 742.816406 219.253906 C 733.601562 211.261719 720.421875 192.085938 735.65625 153.414062 C 751.449219 113.328125 773.867188 76.582031 802.289062 44.199219 C 808.398438 37.234375 818.996094 36.542969 825.960938 42.652344 C 832.925781 48.765625 833.617188 59.363281 827.503906 66.328125 C 801.644531 95.796875 781.242188 129.234375 766.871094 165.710938 C 761.519531 179.292969 760.707031 190.359375 764.796875 193.90625 C 768.460938 197.082031 777.96875 195.917969 790.230469 190.789062 C 797.265625 187.851562 804.1875 184.648438 810.984375 181.207031 C 837.378906 110.945312 882.757812 47.402344 940.835938 0.0273438 C 961.035156 -16.453125 975.75 -11.714844 982.722656 -7.425781 C 991.546875 -2 996.421875 7.691406 996.101562 19.164062 C 995.871094 27.5 993.066406 35.269531 990.753906 40.316406 C 959.09375 109.445312 904.597656 167.769531 838.203125 204.722656 C 836.621094 209.386719 835.128906 214.082031 833.730469 218.804688 C 830.574219 229.464844 827.710938 240.808594 828.160156 251.5 C 828.566406 261.246094 831.925781 269.628906 837.375 274.5 C 843.363281 279.851562 853.210938 282.078125 863.714844 280.457031 C 869.550781 279.554688 875.347656 277.585938 880.960938 275.140625 C 882.714844 262.46875 886.828125 250.75 890.925781 240.488281 C 915.734375 178.3125 959.675781 123.039062 1014.660156 84.855469 C 1034.820312 70.851562 1048.871094 74.308594 1057.109375 79.671875 C 1071.414062 88.984375 1074.335938 107.875 1064.734375 128.976562 C 1033.300781 198.066406 979.90625 257.195312 914.375 295.496094 C 915.964844 303.554688 920.019531 310.410156 925.453125 313.8125 C 936.757812 320.890625 954.625 315.484375 967.644531 309.695312 C 1006.019531 292.625 1039.761719 263.828125 1062.648438 228.613281 C 1067.695312 220.84375 1078.085938 218.636719 1085.855469 223.6875 C 1093.625 228.734375 1095.828125 239.125 1090.78125 246.894531 C 1064.402344 287.484375 1025.511719 320.675781 981.277344 340.351562 C 980.738281 340.589844 980.199219 340.824219 979.664062 341.054688 Z M 1035.738281 111.128906 C 1035.140625 111.5 1034.496094 111.925781 1033.796875 112.410156 C 985.117188 146.21875 946.019531 194.863281 923.402344 249.671875 C 971.121094 215.417969 1009.878906 168.527344 1034.199219 115.082031 C 1034.851562 113.644531 1035.355469 112.316406 1035.738281 111.128906 Z M 959.390625 28.207031 C 919.484375 61.367188 886.238281 102.847656 862.105469 148.964844 C 903.476562 117.164062 937.34375 75.519531 959.390625 28.207031 Z M 959.390625 28.207031 " fill-opacity="1" fill-rule="nonzero"/></g></g></g></svg>